<?xml version="1.0" encoding="utf-8"?>
<!-- Generator: Adobe Illustrator 19.1.0, SVG Export Plug-In . SVG Version: 6.00 Build 0)  -->
<svg version="1.1" id="Capa_1" xmlns="http://www.w3.org/2000/svg" xmlns:xlink="http://www.w3.org/1999/xlink" x="0px" y="0px"
	 viewBox="-117 160.6 724.8 241.4" style="enable-background:new -117 160.6 724.8 241.4;" xml:space="preserve">
<style type="text/css">
	.st0{fill:#FFFFFF;}
	.st1{fill:#00DDE5;}
	.st2{fill:#1C1C1C;}
</style>
<g>
	<g>
		<path class="st0" d="M66.5,164.3h58.3v174.3H66.5V164.3z"/>
		<path class="st0" d="M145.1,164.3h54.5l62,76.9v-76.9h57.8v174.3h-51.8l-64.7-80.4v80.4h-57.8L145.1,164.3L145.1,164.3z"/>
		<path class="st0" d="M441.9,290.8H397v-18.9h38.7c-1.4-6.6-2.2-13.4-2.2-20.4c0-7.4,0.9-14.7,2.5-21.7h-39v-17.7h44.9
			c9.3-20.8,25.7-37.8,46.1-47.8H339.7v174.3H488C467.5,328.6,451.1,311.7,441.9,290.8z"/>
		<circle id="XMLID_2_" class="st1" cx="530.1" cy="251.5" r="77.7"/>
		<circle id="XMLID_1_" class="st2" cx="530.1" cy="251.5" r="63.4"/>
		<g>
			<g>
				<path class="st0" d="M517.6,264.3h-12.1l-1.7,6.7h-11.5l13-39.2h13.1l13.2,39.2h-12.2L517.6,264.3z M510.5,244.6l-2.8,11h7.7
					l-2.8-11l-0.9-4.2h-0.2L510.5,244.6z"/>
				<path class="st0" d="M559.7,255.2l8.5,15.8h-12.7l-5.7-13.6h-4V271h-10.9v-39.2h14.9c10.5,0,15.8,3.9,15.8,12.7
					C565.6,249.7,563.5,253.7,559.7,255.2z M549.9,240.5h-4.1v9h4c3.2,0,4.4-0.8,4.4-4.6C554.2,241.5,553.1,240.5,549.9,240.5z"/>
			</g>
		</g>
		<path class="st0" d="M9.2,269.7c-6.6,12.8-19.9,21.5-35.3,21.5c-21.9,0-39.7-17.8-39.7-39.7s17.8-39.7,39.7-39.7
			c14.9,0,27.9,8.2,34.7,20.4l44.1-25.8C37,179,7.6,160.6-26.1,160.6c-50.2,0-90.9,40.7-90.9,90.9s40.7,90.9,90.9,90.9
			c34.5,0,64.5-19.2,79.9-47.5L9.2,269.7z"/>
	</g>
	<g>
		<path class="st0" d="M-57,401.9c-1.2,0-2.4-0.2-3.4-0.7s-1.9-1.1-2.7-1.9c-0.8-0.8-1.3-1.7-1.8-2.8c-0.4-1.1-0.6-2.2-0.6-3.4l0,0
			c0-1.2,0.2-2.3,0.6-3.4c0.4-1.1,1-2,1.8-2.8s1.7-1.4,2.7-1.9s2.2-0.7,3.4-0.7c0.8,0,1.5,0.1,2.1,0.2s1.2,0.3,1.7,0.6
			c0.5,0.2,1,0.5,1.5,0.9c0.5,0.3,0.9,0.7,1.4,1.1l-0.9,0.9c-0.4-0.4-0.8-0.7-1.2-1c-0.4-0.3-0.8-0.6-1.3-0.8
			c-0.5-0.2-1-0.4-1.5-0.5c-0.5-0.1-1.1-0.2-1.8-0.2c-1,0-2,0.2-2.9,0.6c-0.9,0.4-1.6,0.9-2.3,1.6c-0.6,0.7-1.1,1.5-1.5,2.4
			c-0.4,0.9-0.6,1.9-0.6,3l0,0c0,1.1,0.2,2.1,0.6,3s0.9,1.8,1.5,2.4c0.6,0.7,1.4,1.2,2.3,1.6c0.9,0.4,1.8,0.6,2.9,0.6
			c1.2,0,2.3-0.2,3.2-0.7c0.9-0.5,1.8-1.1,2.7-2l0.9,0.8c-0.5,0.4-0.9,0.8-1.4,1.2c-0.5,0.4-1,0.7-1.5,0.9c-0.5,0.3-1.1,0.5-1.8,0.6
			C-55.6,401.6-56.2,401.9-57,401.9z"/>
		<path class="st0" d="M-25.6,401.9c-1.3,0-2.5-0.2-3.5-0.7c-1.1-0.5-2-1.1-2.7-1.9c-0.8-0.8-1.3-1.7-1.7-2.8
			c-0.4-1.1-0.6-2.2-0.6-3.3l0,0c0-1.2,0.2-2.3,0.6-3.4s1-2,1.7-2.8c0.7-0.8,1.7-1.5,2.7-1.9c1.1-0.5,2.2-0.7,3.5-0.7
			s2.5,0.2,3.5,0.7c1.1,0.5,2,1.1,2.7,1.9s1.3,1.7,1.7,2.8c0.4,1.1,0.6,2.2,0.6,3.3l0,0c0,1.2-0.2,2.3-0.6,3.4c-0.4,1.1-1,2-1.7,2.8
			c-0.8,0.8-1.7,1.5-2.7,1.9S-24.3,401.9-25.6,401.9z M-25.6,400.7c1.1,0,2-0.2,2.9-0.6s1.7-0.9,2.3-1.6c0.6-0.7,1.1-1.5,1.5-2.4
			s0.5-1.9,0.5-3l0,0c0-1.1-0.2-2.1-0.6-3s-0.9-1.8-1.5-2.4s-1.4-1.2-2.3-1.7c-0.9-0.4-1.9-0.6-2.9-0.6s-2,0.2-2.9,0.6
			c-0.9,0.4-1.7,0.9-2.3,1.6c-0.6,0.7-1.1,1.5-1.5,2.4c-0.4,0.9-0.5,1.9-0.5,3l0,0c0,1.1,0.2,2.1,0.6,3c0.4,0.9,0.9,1.8,1.5,2.4
			c0.6,0.7,1.4,1.2,2.3,1.7S-26.6,400.7-25.6,400.7z"/>
		<path class="st0" d="M0.5,384.5h1.2l11.8,14.9v-14.9h1.2v17.1h-1L1.6,386.4v15.2H0.4L0.5,384.5L0.5,384.5z"/>
		<path class="st0" d="M37.8,385.6h-6v-1.1H45v1.1h-6v16h-1.3v-16H37.8z"/>
		<path class="st0" d="M62.1,384.5h12.2v1.1H63.4v6.8h9.8v1.1h-9.8v6.9h11v1.1H62.1V384.5z"/>
		<path class="st0" d="M91.7,384.5h1.2l11.8,14.9v-14.9h1.2v17.1h-1l-12.1-15.2v15.2h-1.2v-17.1H91.7z"/>
		<path class="st0" d="M124.3,384.5h1.3v17.1h-1.3V384.5z"/>
		<path class="st0" d="M144.1,384.5h5.7c1.3,0,2.6,0.2,3.7,0.6s2.1,1,2.9,1.8c0.8,0.8,1.4,1.7,1.9,2.7c0.4,1,0.7,2.2,0.7,3.4l0,0
			c0,1.2-0.2,2.3-0.7,3.4c-0.4,1-1.1,1.9-1.9,2.7c-0.8,0.8-1.8,1.4-2.9,1.8s-2.3,0.7-3.7,0.7h-5.7V384.5z M145.3,385.6v14.8h4.4
			c1.2,0,2.3-0.2,3.2-0.6c1-0.4,1.8-0.9,2.4-1.6c0.7-0.7,1.2-1.4,1.6-2.3s0.5-1.9,0.5-2.9l0,0c0-1-0.2-2-0.5-2.9
			c-0.4-0.9-0.9-1.7-1.6-2.4s-1.5-1.2-2.4-1.6c-1-0.4-2-0.6-3.2-0.6h-4.4V385.6z"/>
		<path class="st0" d="M184.2,401.9c-1.3,0-2.5-0.2-3.5-0.7c-1.1-0.5-2-1.1-2.7-1.9c-0.8-0.8-1.3-1.7-1.7-2.8
			c-0.4-1.1-0.6-2.2-0.6-3.3l0,0c0-1.2,0.2-2.3,0.6-3.4s1-2,1.7-2.8c0.7-0.8,1.7-1.5,2.7-1.9c1.1-0.5,2.2-0.7,3.5-0.7
			s2.5,0.2,3.5,0.7c1.1,0.5,2,1.1,2.7,1.9s1.3,1.7,1.7,2.8c0.4,1.1,0.6,2.2,0.6,3.3l0,0c0,1.2-0.2,2.3-0.6,3.4c-0.4,1.1-1,2-1.7,2.8
			c-0.8,0.8-1.7,1.5-2.7,1.9S185.5,401.9,184.2,401.9z M184.3,400.7c1.1,0,2-0.2,2.9-0.6s1.7-0.9,2.3-1.6c0.6-0.7,1.1-1.5,1.5-2.4
			s0.5-1.9,0.5-3l0,0c0-1.1-0.2-2.1-0.6-3s-0.9-1.8-1.5-2.4s-1.4-1.2-2.3-1.7c-0.9-0.4-1.9-0.6-2.9-0.6s-2,0.2-2.9,0.6
			c-0.9,0.4-1.7,0.9-2.3,1.6c-0.6,0.7-1.1,1.5-1.5,2.4c-0.4,0.9-0.5,1.9-0.5,3l0,0c0,1.1,0.2,2.1,0.6,3c0.4,0.9,0.9,1.8,1.5,2.4
			c0.6,0.7,1.4,1.2,2.3,1.7S183.2,400.7,184.3,400.7z"/>
		<path class="st0" d="M216.1,401.8c-1.4,0-2.6-0.2-3.7-0.7s-2.2-1.1-3.2-2.1l0.8-1c0.5,0.4,0.9,0.8,1.4,1.1s0.9,0.6,1.4,0.8
			c0.5,0.2,1,0.4,1.5,0.5c0.5,0.1,1.1,0.2,1.8,0.2s1.2-0.1,1.8-0.3c0.6-0.2,1-0.4,1.4-0.7s0.7-0.7,0.9-1.1c0.2-0.4,0.3-0.9,0.3-1.4
			l0,0c0-0.5-0.1-0.9-0.2-1.2c-0.1-0.4-0.4-0.7-0.8-1c-0.4-0.3-0.9-0.6-1.5-0.8s-1.4-0.5-2.4-0.6c-1-0.2-1.9-0.5-2.6-0.7
			c-0.7-0.2-1.3-0.6-1.8-1c-0.5-0.4-0.8-0.8-1-1.3s-0.3-1.1-0.3-1.7l0,0c0-0.6,0.1-1.2,0.4-1.8c0.3-0.5,0.7-1,1.1-1.4s1.1-0.7,1.7-1
			c0.7-0.2,1.4-0.3,2.2-0.3c1.2,0,2.3,0.2,3.2,0.5c0.9,0.3,1.8,0.9,2.7,1.6l-0.8,1c-0.8-0.7-1.6-1.2-2.5-1.5
			c-0.8-0.3-1.7-0.4-2.7-0.4c-0.6,0-1.2,0.1-1.7,0.3s-1,0.4-1.3,0.7c-0.4,0.3-0.6,0.6-0.8,1c-0.2,0.4-0.3,0.8-0.3,1.2l0,0
			c0,0.5,0.1,0.9,0.2,1.2c0.1,0.4,0.4,0.7,0.8,1c0.4,0.3,0.9,0.6,1.5,0.8c0.7,0.2,1.5,0.5,2.5,0.7c2,0.4,3.4,1,4.3,1.7
			s1.3,1.7,1.3,3l0,0c0,0.7-0.1,1.3-0.4,1.9c-0.3,0.6-0.7,1.1-1.2,1.5s-1.1,0.7-1.8,1C217.6,401.7,216.9,401.8,216.1,401.8z"/>
		<path class="st0" d="M262.9,384.4h5.7l7.2,17.2h-6.2l-0.9-2.3h-6l-0.9,2.3h-6.1L262.9,384.4z M267.3,395.2l-1.6-4.2l-1.6,4.2
			H267.3z"/>
		<path class="st0" d="M289.7,384.5h8.4c1.5,0,2.8,0.2,3.8,0.5c1,0.4,1.8,0.8,2.4,1.4c0.5,0.5,0.9,1.1,1.2,1.8
			c0.3,0.7,0.4,1.4,0.4,2.3l0,0c0,1.3-0.3,2.3-0.9,3.2c-0.6,0.9-1.4,1.5-2.5,2.1l4,5.8H300l-3.2-4.9h-1.2v4.9h-5.7v-17.1H289.7z
			 M297.9,392.6c0.7,0,1.2-0.1,1.6-0.4s0.6-0.7,0.6-1.2l0,0c0-0.6-0.2-1-0.6-1.2c-0.4-0.3-0.9-0.4-1.6-0.4h-2.5v3.3h2.5V392.6z"/>
		<path class="st0" d="M329.6,402c-1.3,0-2.6-0.2-3.8-0.6c-1.2-0.4-2.2-1-3.1-1.8c-0.9-0.8-1.6-1.7-2.1-2.8s-0.7-2.3-0.7-3.6l0,0
			c0-1.3,0.2-2.5,0.7-3.5s1.1-2,2-2.8c0.8-0.8,1.8-1.4,3-1.9c1.1-0.4,2.4-0.7,3.8-0.7c1.5,0,2.8,0.2,4,0.7s2.2,1.1,3.2,1.9l-3.2,3.9
			c-0.6-0.5-1.2-0.8-1.8-1.1c-0.6-0.3-1.3-0.4-2-0.4c-0.6,0-1.1,0.1-1.5,0.3c-0.5,0.2-0.9,0.5-1.2,0.8c-0.3,0.4-0.6,0.8-0.8,1.3
			c-0.2,0.5-0.3,1-0.3,1.6l0,0c0,0.6,0.1,1.2,0.3,1.7c0.2,0.5,0.5,0.9,0.8,1.3c0.4,0.4,0.8,0.6,1.3,0.8c0.5,0.2,1,0.3,1.7,0.3
			c0.5,0,0.9,0,1.2-0.1c0.3-0.1,0.6-0.2,0.8-0.3v-1.7H329v-3.7h8.3v7.9c-0.9,0.8-2,1.4-3.3,1.9C332.6,401.7,331.2,402,329.6,402z"/>
		<path class="st0" d="M352,384.5h14.6v4.7h-9v1.7h8.4v4.1h-8.4v1.9h9.1v4.7H352V384.5z"/>
		<path class="st0" d="M381.5,384.5h5.4l6.1,7.6v-7.6h5.7v17.1h-5.1l-6.4-7.9v7.9h-5.7V384.5z"/>
		<path class="st0" d="M418.1,389.3h-5v-4.8h15.8v4.8h-5v12.3h-5.7L418.1,389.3L418.1,389.3z"/>
		<path class="st0" d="M443.4,384.5h5.7v17.1h-5.7V384.5z"/>
		<path class="st0" d="M464.4,384.5h5.4l6.1,7.6v-7.6h5.7v17.1h-5.1l-6.4-7.9v7.9h-5.7V384.5z"/>
		<path class="st0" d="M505.6,402c-1.3,0-2.5-0.2-3.7-0.7s-2.1-1.1-3-1.9c-0.8-0.8-1.5-1.7-2-2.8s-0.7-2.2-0.7-3.5l0,0
			c0-1.2,0.2-2.4,0.7-3.5s1.1-2,2-2.8c0.8-0.8,1.8-1.4,3-1.9c1.1-0.5,2.4-0.7,3.7-0.7s2.5,0.2,3.7,0.7c1.1,0.5,2.1,1.1,3,1.9
			c0.8,0.8,1.5,1.7,2,2.8s0.7,2.2,0.7,3.5l0,0c0,1.2-0.2,2.4-0.7,3.5s-1.1,2-2,2.8c-0.8,0.8-1.8,1.4-3,1.9S506.9,402,505.6,402z
			 M505.6,396.9c0.5,0,1-0.1,1.5-0.3s0.8-0.5,1.1-0.8c0.3-0.3,0.5-0.8,0.7-1.2c0.2-0.5,0.2-0.9,0.2-1.4l0,0c0-0.5-0.1-1-0.3-1.5
			s-0.4-0.9-0.7-1.2c-0.3-0.4-0.7-0.6-1.1-0.9s-0.9-0.3-1.5-0.3c-0.5,0-1,0.1-1.5,0.3c-0.4,0.2-0.8,0.5-1.1,0.8s-0.5,0.8-0.7,1.2
			c-0.2,0.4-0.2,0.9-0.2,1.4l0,0c0,0.5,0.1,1,0.3,1.5s0.4,0.9,0.7,1.2s0.7,0.6,1.1,0.9C504.6,396.8,505,396.9,505.6,396.9z"/>
		<path class="st0" d="M536.9,401.9c-1.7,0-3.4-0.2-4.9-0.7s-2.8-1.2-3.9-2.2l3.1-3.6c0.9,0.7,1.9,1.2,2.9,1.5c1,0.3,2,0.5,3.1,0.5
			c0.5,0,0.9-0.1,1.1-0.2c0.2-0.1,0.3-0.3,0.3-0.5l0,0c0-0.2-0.2-0.4-0.5-0.6c-0.3-0.2-1-0.3-1.9-0.5c-1-0.2-1.9-0.4-2.8-0.7
			c-0.9-0.3-1.6-0.6-2.3-1c-0.7-0.4-1.2-0.9-1.6-1.5c-0.4-0.6-0.6-1.4-0.6-2.3l0,0c0-0.8,0.2-1.6,0.5-2.3c0.3-0.7,0.8-1.3,1.4-1.8
			s1.4-0.9,2.3-1.2c0.9-0.3,1.9-0.4,3.1-0.4c1.7,0,3.1,0.2,4.4,0.6c1.2,0.4,2.4,1,3.4,1.8l-2.8,3.9c-0.8-0.6-1.7-1-2.6-1.3
			c-0.9-0.3-1.8-0.4-2.6-0.4c-0.4,0-0.7,0.1-0.9,0.2c-0.2,0.1-0.3,0.3-0.3,0.5l0,0c0,0.1,0,0.2,0.1,0.3c0.1,0.1,0.2,0.2,0.4,0.3
			s0.4,0.2,0.7,0.3c0.3,0.1,0.7,0.2,1.1,0.2c1.1,0.2,2.1,0.4,3,0.7c0.9,0.3,1.7,0.6,2.3,1.1c0.6,0.4,1.1,0.9,1.5,1.6
			c0.4,0.6,0.5,1.3,0.5,2.2l0,0c0,0.9-0.2,1.7-0.5,2.4s-0.9,1.3-1.5,1.8c-0.7,0.5-1.4,0.9-2.4,1.1
			C539.1,401.8,538.1,401.9,536.9,401.9z"/>
	</g>
</g>
</svg>
